<svg xmlns="http://www.w3.org/2000/svg" width="24" height="24" aria-hidden="false" aria-labelledby=":r67e:_title" class="text-current" viewBox="0 0 24 24"><path fill="currentColor" d="M12 2c-2.709 0-3.059 0-4.13.056-.83.016-1.65.173-2.428.463A5 5 0 0 0 3.67 3.682a4.75 4.75 0 0 0-1.15 1.772c-.25.632-.418 1.354-.464 2.426C2.011 8.941 2 9.28 2 12c0 2.709 0 3.047.056 4.12.046 1.072.226 1.805.463 2.438A5.1 5.1 0 0 0 3.67 20.33c.565.553 1.118.903 1.772 1.15.644.25 1.366.418 2.427.464C8.941 21.989 9.28 22 12 22c2.709 0 3.047 0 4.12-.056 1.06-.046 1.794-.226 2.426-.463a4.9 4.9 0 0 0 1.772-1.151 4.9 4.9 0 0 0 1.151-1.772c.249-.644.418-1.366.475-2.438.045-1.061.056-1.4.056-4.12 0-2.709-.011-3.047-.056-4.12a7.4 7.4 0 0 0-.474-2.426 4.9 4.9 0 0 0-1.152-1.772 4.9 4.9 0 0 0-1.772-1.163 7.4 7.4 0 0 0-2.426-.451C15.047 2.01 14.709 2 12 2m-.903 1.806H12c2.664 0 2.98 0 4.04.056a5.5 5.5 0 0 1 1.852.339c.474.18.801.395 1.15.745.35.35.565.688.757 1.151.136.361.294.88.339 1.862.045 1.05.056 1.366.056 4.041 0 2.664 0 2.98-.056 4.04a5.5 5.5 0 0 1-.339 1.852c-.18.474-.406.801-.756 1.15-.339.35-.677.565-1.151.746a5.5 5.5 0 0 1-1.851.35c-1.061.045-1.377.056-4.041.056-2.675 0-2.991 0-4.04-.056a5.6 5.6 0 0 1-1.863-.339 3.4 3.4 0 0 1-1.151-.756 3.1 3.1 0 0 1-.745-1.151 5.5 5.5 0 0 1-.339-1.851c-.056-1.061-.067-1.377-.067-4.041 0-2.675.01-2.991.056-4.04a5.5 5.5 0 0 1 .339-1.863c.191-.463.406-.79.756-1.151A3.2 3.2 0 0 1 6.097 4.2a5.5 5.5 0 0 1 1.862-.339c.915-.045 1.276-.056 3.138-.067zm6.242 1.659a1.196 1.196 0 1 0 0 2.392 1.196 1.196 0 0 0 0-2.392M12 6.865a5.135 5.135 0 1 0 0 10.27 5.135 5.135 0 0 0 0-10.27m0 1.805a3.33 3.33 0 1 1 0 6.66 3.33 3.33 0 0 1 0-6.66"/></svg>