<svg xmlns="http://www.w3.org/2000/svg" width="32" height="32" fill="none" class="h-8 w-8" viewBox="0 0 28 28"><g clip-path="url(#a)"><path fill="currentColor" d="M8.313 21a1.312 1.312 0 1 0 0-2.625 1.312 1.312 0 0 0 0 2.625"/><path stroke="currentColor" stroke-linecap="round" stroke-linejoin="round" stroke-width="1.75" d="M12.124 20.371a3.907 3.907 0 0 1-4.522 3.194 3.937 3.937 0 0 1-3.166-4.562L7.17 3.348a.875.875 0 0 1 1.005-.71l5.98 1.064a.875.875 0 0 1 .704 1.013z"/><path stroke="currentColor" stroke-linecap="round" stroke-linejoin="round" stroke-width="1.75" d="M25.375 17.083v5.667a.875.875 0 0 1-.875.875H8.313"/><path stroke="currentColor" stroke-linecap="round" stroke-linejoin="round" stroke-width="1.75" d="m13.28 13.755 8.837-3.203a.875.875 0 0 1 1.117.52l2.089 5.71a.87.87 0 0 1-.522 1.113L9.643 23.389a3.8 3.8 0 0 1-1.33.236"/></g><defs><clipPath id="a"><path fill="#fff" d="M0 0h28v28H0z"/></clipPath></defs></svg>