<svg xmlns="http://www.w3.org/2000/svg" width="32" height="32" fill="none" class="h-8 w-8" viewBox="0 0 28 28"><g clip-path="url(#a)"><path stroke="currentColor" stroke-linecap="round" stroke-linejoin="round" stroke-width="1.75" d="M17.5 9.625H5.25a.875.875 0 0 0-.875.875v12.25c0 .483.392.875.875.875H17.5a.875.875 0 0 0 .875-.875V10.5a.875.875 0 0 0-.875-.875m0-5.25h-1.75m6.125 0h.875a.875.875 0 0 1 .875.875v.875m0 6.125V10.5m-1.75 7.875h.875a.875.875 0 0 0 .875-.875v-.875m-12.25-12.25H10.5a.875.875 0 0 0-.875.875v.875"/></g><defs><clipPath id="a"><path fill="#fff" d="M0 0h28v28H0z"/></clipPath></defs></svg>