<svg xmlns="http://www.w3.org/2000/svg" viewBox="8.447 8.053 31.105 31.902"><g xmlns="http://www.w3.org/2000/svg" clip-path="url(#clip0_6_514)"><path d="M24 8.053c-8.59 0-15.553 7.141-15.553 15.95 0 8.81 6.963 15.951 15.552 15.951 8.59 0 15.552-7.14 15.552-15.95S32.59 8.054 24 8.054zm7.131 23.005a.955.955 0 0 1-1.333.33c-3.652-2.288-8.248-2.806-13.662-1.537a.97.97 0 0 1-1.16-.749.994.994 0 0 1 .728-1.19c5.925-1.389 11.006-.79 15.106 1.779.457.288.602.899.321 1.367m1.904-4.343a1.195 1.195 0 0 1-1.668.41c-4.18-2.636-10.553-3.4-15.497-1.86a1.21 1.21 0 0 1-1.514-.828c-.193-.658.169-1.351.809-1.551 5.648-1.758 12.67-.907 17.47 2.12.57.36.75 1.125.4 1.709m.163-4.523c-5.012-3.053-13.282-3.334-18.068-1.845-.768.24-1.58-.206-1.814-.994s.2-1.621.97-1.86c5.493-1.711 14.626-1.38 20.397 2.133.693.42.92 1.336.509 2.044a1.433 1.433 0 0 1-1.993.522"/></g></svg>