<svg xmlns="http://www.w3.org/2000/svg" width="44" height="44" fill="none"><rect width="44" height="44" fill="#E9C0E9" rx="5"/><path fill="#000" fill-opacity=".9" d="M28.875 14.208h-2.062v-.687a.687.687 0 1 0-1.375 0v.687h-6.875v-.687a.687.687 0 1 0-1.375 0v.687h-2.063a1.375 1.375 0 0 0-1.375 1.375v13.75a1.375 1.375 0 0 0 1.375 1.375h13.75a1.375 1.375 0 0 0 1.375-1.375v-13.75a1.375 1.375 0 0 0-1.375-1.375m-11.687 1.375v.687a.687.687 0 1 0 1.375 0v-.687h6.875v.687a.687.687 0 1 0 1.375 0v-.687h2.062v2.75h-13.75v-2.75zm11.687 13.75h-13.75v-9.625h13.75zm-5.844-6.531a1.031 1.031 0 1 1-2.063 0 1.031 1.031 0 0 1 2.063 0m3.782 0a1.031 1.031 0 1 1-2.063 0 1.031 1.031 0 0 1 2.063 0m-7.563 3.437a1.031 1.031 0 1 1-2.063 0 1.031 1.031 0 0 1 2.063 0m3.781 0a1.031 1.031 0 1 1-2.063 0 1.031 1.031 0 0 1 2.063 0m3.782 0a1.031 1.031 0 1 1-2.063 0 1.031 1.031 0 0 1 2.063 0"/></svg>