<svg xmlns="http://www.w3.org/2000/svg" width="16" height="16" fill="none" aria-hidden="true" viewBox="0 0 16 16"><path fill="currentColor" fill-rule="evenodd" d="m3.5 1-.35.14-3 3L0 4.3v1.2c0 .8.4 1.47 1 1.92V15H0v1h15v-1h-1V7.4c.6-.44 1-1.11 1-1.9V4.32l-.12-.14-2.5-3L12 1zM2 15V7.89c.27.07.55.1.83.1.94 0 1.81-.4 2.34-1.07C5.69 7.6 6.57 8 7.5 8s1.8-.41 2.33-1.08c.53.67 1.4 1.08 2.34 1.08.28 0 .56-.04.83-.11v7.1h-3v-4.5l-.5-.5h-4l-.5.5V15zm4 0h3v-4H6zm7.43-11-1.66-2H3.7l-2 2h11.72ZM1 5v.5C1 6.26 1.75 7 2.83 7c1.1 0 1.84-.74 1.84-1.5h1c0 .76.74 1.5 1.83 1.5s1.83-.74 1.83-1.5h1c0 .76.75 1.5 1.84 1.5C13.25 7 14 6.26 14 5.5V5z"/></svg>