<svg xmlns="http://www.w3.org/2000/svg" width="16" height="16" fill="none" aria-hidden="true" viewBox="0 0 16 16"><path fill="currentColor" d="M10.03 4.03v7.62c0 .8-.25 1.57-.71 2.23a4.16 4.16 0 0 1-1.88 1.47 4.38 4.38 0 0 1-4.55-.86 3.83 3.83 0 0 1-.91-4.38c.31-.73.85-1.36 1.54-1.8.69-.43 1.5-.66 2.32-.66v1c-.64 0-1.26.18-1.78.51-.53.34-.93.8-1.17 1.35a2.83 2.83 0 0 0 .68 3.25 3.38 3.38 0 0 0 3.5.66A3.16 3.16 0 0 0 8.5 13.3c.35-.5.53-1.07.53-1.66V1h1a4.1 4.1 0 0 0 1.2 2.88 4.25 4.25 0 0 0 2.92 1.15v1a5.25 5.25 0 0 1-4.12-2"/></svg>