<svg xmlns="http://www.w3.org/2000/svg" width="14" height="14" fill="none" class="language-dropdown-trigger-icon-start" viewBox="0 0 14 14"><path fill="#17191A" d="M7.09.382C3.587.382.749 3.37.749 7.05s2.838 6.667 6.343 6.667c3.51 0 6.355-2.987 6.355-6.667S10.602.382 7.091.382m4.4 4H9.619a10.8 10.8 0 0 0-.876-2.373c1.168.42 2.14 1.273 2.749 2.373m-4.393-2.64c.527.8.94 1.687 1.213 2.64H5.884a9.6 9.6 0 0 1 1.213-2.64m-4.914 6.64a5.8 5.8 0 0 1-.165-1.333c0-.46.063-.907.165-1.333h2.146c-.05.44-.089.88-.089 1.333s.038.893.089 1.333zm.52 1.334h1.874c.203.833.495 1.633.876 2.373a5.14 5.14 0 0 1-2.75-2.373m1.874-5.334H2.703a5.14 5.14 0 0 1 2.75-2.373c-.381.74-.673 1.54-.876 2.373m2.52 7.974a9.6 9.6 0 0 1-1.213-2.64H8.31a9.6 9.6 0 0 1-1.213 2.64m1.486-3.974H5.61c-.057-.44-.101-.88-.101-1.333s.044-.9.101-1.333h2.972c.057.433.101.88.101 1.333s-.044.893-.101 1.333m.159 3.707c.38-.74.673-1.54.876-2.373h1.873c-.61 1.1-1.581 1.953-2.75 2.373m1.123-3.707c.051-.44.09-.88.09-1.333s-.039-.893-.09-1.333h2.146c.102.426.166.873.166 1.333s-.064.907-.166 1.333z"/></svg>