<svg xmlns="http://www.w3.org/2000/svg" width="16" height="16" fill="none" viewBox="0 0 16 16"><path fill="currentColor" d="M10.044 3.697a5.955 5.955 0 0 0 5.95 5.95l.005.2-.006.198a5.955 5.955 0 0 0-5.95 5.95L9.846 16l-.2-.006a5.954 5.954 0 0 0-5.95-5.95q-.004-.098-.005-.197.001-.1.005-.2a5.954 5.954 0 0 0 5.95-5.95q.1-.004.2-.005.099.001.198.005M3.812.003a3.573 3.573 0 0 0 3.569 3.57l.004.12q-.001.06-.004.119A3.573 3.573 0 0 0 3.81 7.38l-.119.004-.12-.004a3.57 3.57 0 0 0-3.57-3.57L0 3.693l.003-.12a3.57 3.57 0 0 0 3.57-3.57L3.692 0q.06 0 .119.003"/></svg>