<svg xmlns="http://www.w3.org/2000/svg" width="44" height="44" fill="none" viewBox="0 0 44 44"><rect width="44" height="44" fill="#D2E823" rx="5"/><path fill="#000" fill-opacity=".9" d="M19.938 14.896h-4.125a1.375 1.375 0 0 0-1.376 1.374v4.125a1.375 1.375 0 0 0 1.376 1.375h4.124a1.375 1.375 0 0 0 1.375-1.375V16.27a1.375 1.375 0 0 0-1.375-1.374m0 5.5h-4.125V16.27h4.124zm8.25-5.5h-4.125a1.375 1.375 0 0 0-1.375 1.374v4.125a1.375 1.375 0 0 0 1.375 1.375h4.125a1.375 1.375 0 0 0 1.375-1.375V16.27a1.375 1.375 0 0 0-1.375-1.374m0 5.5h-4.125V16.27h4.125zm-8.25 2.75h-4.125a1.375 1.375 0 0 0-1.376 1.374v4.125a1.375 1.375 0 0 0 1.376 1.375h4.124a1.375 1.375 0 0 0 1.375-1.375V24.52a1.375 1.375 0 0 0-1.375-1.375m0 5.5h-4.125V24.52h4.124zm8.25-5.5h-4.125a1.375 1.375 0 0 0-1.375 1.374v4.125a1.375 1.375 0 0 0 1.375 1.375h4.125a1.375 1.375 0 0 0 1.375-1.375V24.52a1.375 1.375 0 0 0-1.375-1.375m0 5.5h-4.125V24.52h4.125z"/></svg>