<svg xmlns="http://www.w3.org/2000/svg" fill="none" style="display:block;width:auto" viewBox="0 0 80 17"><desc>Linktree Logo Symbol and Word Mark</desc><path fill="#000" d="M0 1.727h2.26V13.63h6.246v2.093H0zm10.729 0a1.396 1.396 0 0 1 1.414 1.378 1.415 1.415 0 1 1-2.829 0 1.384 1.384 0 0 1 1.415-1.378M9.626 5.64h2.168v10.084H9.626zm3.436 0h2.168v1.396c.641-1.065 1.744-1.672 3.195-1.672 2.351 0 3.821 1.837 3.821 4.759v5.601h-2.168v-5.418c0-1.892-.826-2.958-2.32-2.958-1.633 0-2.533 1.121-2.533 3.142v5.234h-2.168zm10.323-3.913h2.168v8.855l4.042-4.942h2.718l-4.317 5.052 4.317 5.032h-2.718l-4.042-4.922v4.922h-2.168zm9.774 1.347h2.204v2.572h2.572v1.8h-2.572v5.198c0 .663.404 1.067 1.029 1.067h1.452v2.02h-1.746c-1.892 0-2.94-1.121-2.94-3.104zm5.731 2.572h2.168v1.25c.533-.956 1.433-1.526 2.535-1.526.255-.011.51.02.754.092v2.021a3.2 3.2 0 0 0-.809-.073c-1.598 0-2.48 1.347-2.48 3.656v4.664H38.89zm10.526-.276c2.388 0 4.978 1.452 4.978 5.549v.293h-7.77c.166 1.8 1.212 2.792 2.957 2.792 1.25 0 2.315-.68 2.554-1.616h2.204c-.22 2.02-2.314 3.618-4.758 3.618-3.123 0-5.087-2.04-5.087-5.326 0-2.927 1.892-5.316 4.922-5.316zm2.664 4.042c-.313-1.25-1.286-2.04-2.664-2.04-1.323 0-2.259.81-2.626 2.04zm8.193-4.042c2.388 0 4.979 1.452 4.979 5.549v.293H57.48c.165 1.8 1.212 2.792 2.957 2.792 1.25 0 2.315-.68 2.554-1.616h2.205c-.22 2.02-2.315 3.618-4.759 3.618-3.123 0-5.088-2.04-5.088-5.326 0-2.927 1.892-5.316 4.923-5.316zm2.664 4.042c-.312-1.25-1.286-2.04-2.664-2.04-1.323 0-2.26.81-2.627 2.04z"/><path fill="#43E660" d="M65.785 5.334h3.877l-2.756-2.627 1.525-1.568 2.627 2.7V0h2.278v3.84l2.627-2.695 1.523 1.562-2.754 2.62h3.875v2.168H74.71l2.773 2.695-1.52 1.53-3.766-3.784-3.766 3.785-1.525-1.525 2.774-2.694h-3.895zm5.267 5.272h2.278v5.144h-2.278z"/></svg>