<svg xmlns="http://www.w3.org/2000/svg" width="24" height="24" aria-hidden="false" aria-labelledby=":r65f:_title" class="text-primary text-current" viewBox="0 0 24 24"><path fill="currentColor" d="M21.974 17.066c-.083-.291-.5-.5-.5-.5l-.108-.05a8 8 0 0 1-1.833-1.2 6 6 0 0 1-1.058-1.208 4.6 4.6 0 0 1-.584-1.208c-.041-.15-.033-.217 0-.3.025-.067.109-.125.142-.167q.65-.452 1.325-.866c.325-.234.55-.459.675-.717.167-.317.192-.675.058-1.025-.175-.475-.616-.758-1.183-.758-.125 0-.25.017-.375.041a5 5 0 0 0-.898.291.025.025 0 0 1-.027-.032c.025-.633.058-1.483-.008-2.292a5.6 5.6 0 0 0-.459-1.883 5.05 5.05 0 0 0-2.116-2.275A6 6 0 0 0 12 2.151c-1.108 0-2.125.258-3.016.766A5.08 5.08 0 0 0 6.4 7.075q-.075 1.146 0 2.292c0 .016-.025.033-.05.025a5.5 5.5 0 0 0-.875-.284 2 2 0 0 0-.384-.041c-.566 0-1 .283-1.183.75-.133.358-.117.716.058 1.033.134.25.35.492.675.717l.475.316c.234.142.6.384.834.55a.5.5 0 0 1 .166.167c.025.083.034.15-.008.317a4.8 4.8 0 0 1-.583 1.191 6.2 6.2 0 0 1-1.059 1.208 8 8 0 0 1-1.833 1.2l-.117.059s-.416.216-.491.491c-.117.4.192.784.5.983a5.4 5.4 0 0 0 1.791.684c.05.017.175.066.234.142.075.083.083.2.108.333a.95.95 0 0 0 .392.658c.291.2.658.208 1.125.233.483.017 1.091.042 1.783.267.325.108.616.292.958.5a5.35 5.35 0 0 0 6.166 0c.342-.217.634-.392.95-.5.692-.225 1.3-.25 1.783-.267.467-.016.834-.033 1.125-.233.284-.192.367-.483.4-.7.025-.108.034-.208.1-.291.05-.067.167-.109.234-.134l.283-.083a5.2 5.2 0 0 0 1.375-.517c.666-.383.716-.85.641-1.083z"/></svg>