<svg width="40" height="40" viewBox="0 0 40 40" fill="none" xmlns="http://www.w3.org/2000/svg">
<path d="M0 8C0 3.58172 3.58172 0 8 0H32C36.4183 0 40 3.58172 40 8V32C40 36.4183 36.4183 40 32 40H8C3.58172 40 0 36.4183 0 32V8Z" fill="url(#paint0_linear_106_717)"/>
<path d="M4.89825 21.3177C4.83401 21.3177 4.78278 21.3673 4.77464 21.4388L4.54858 23.1554L4.77464 24.8419C4.77546 24.9127 4.83401 24.9623 4.89825 24.9623C4.96086 24.9623 5.01128 24.9135 5.02185 24.8419L5.28938 23.1546L5.02185 21.438C5.01209 21.3673 4.96086 21.3177 4.89825 21.3177V21.3177ZM6.16923 20.3801C6.15865 20.3061 6.1058 20.2557 6.04075 20.2557C5.97569 20.2557 5.92121 20.3085 5.91227 20.3801C5.91227 20.3802 5.60814 23.1554 5.60814 23.1554L5.91227 25.869C5.92121 25.9421 5.97488 25.9942 6.04075 25.9942C6.1058 25.9942 6.15865 25.9429 6.16923 25.8698L6.51482 23.1554L6.16923 20.3801ZM10.9555 17.8202C10.8311 17.8202 10.7278 17.9219 10.7221 18.052L10.4798 23.1579L10.7221 26.4577C10.7287 26.587 10.8311 26.6886 10.9555 26.6886C11.0791 26.6886 11.1824 26.587 11.1897 26.4577V26.4578L11.4629 23.1579L11.1897 18.0521C11.1824 17.9228 11.0799 17.8203 10.9555 17.8203V17.8202ZM8.47781 19.5946C8.38185 19.5946 8.30379 19.6711 8.29647 19.7727L8.02406 23.1555L8.29647 26.4244C8.30379 26.5261 8.38185 26.6025 8.47781 26.6025C8.57213 26.6025 8.65101 26.5261 8.65914 26.4244L8.96896 23.1555L8.65914 19.7719C8.65833 19.6703 8.57295 19.5938 8.47781 19.5938V19.5946ZM13.4731 26.6863C13.6276 26.6863 13.7536 26.5619 13.7593 26.4025L13.9968 23.1587L13.7601 16.3615C13.7536 16.2021 13.6284 16.0777 13.4739 16.0777C13.3178 16.0777 13.1917 16.2029 13.1869 16.3623L12.9762 23.1587L13.1869 26.4041C13.1917 26.5627 13.3178 26.6871 13.4731 26.6871V26.6863ZM18.6269 26.7017C18.84 26.7017 19.0148 26.5269 19.0189 26.3114V26.3138V26.3114L19.1848 23.1604L19.0189 15.3101C19.0148 15.0954 18.8392 14.9197 18.6269 14.9197C18.4139 14.9197 18.2383 15.0946 18.235 15.3109L18.087 23.1587C18.087 23.1636 18.235 26.3146 18.235 26.3146C18.2383 26.5277 18.4147 26.7033 18.6269 26.7033V26.7017ZM16.0305 26.6911C16.2159 26.6911 16.3647 26.5423 16.3696 26.3529V26.3553L16.5713 23.1604L16.3696 16.3135C16.3647 16.124 16.2151 15.976 16.0305 15.976C15.8443 15.976 15.6947 16.124 15.6906 16.3135L15.5117 23.1604L15.6914 26.3545C15.6955 26.5415 15.8443 26.6903 16.0313 26.6903L16.0305 26.6911ZM9.71301 26.6602C9.82279 26.6602 9.91223 26.5724 9.92037 26.4561L10.2123 23.1563L9.92037 20.0167C9.91955 19.9004 9.8236 19.8134 9.71301 19.8134C9.6016 19.8134 9.51216 19.9012 9.50565 20.0183L9.24869 23.1563L9.50565 26.4561C9.51297 26.5724 9.6016 26.6602 9.71301 26.6602V26.6602ZM7.25724 26.4797C7.33775 26.4797 7.4028 26.4163 7.41175 26.3285L7.73945 23.1555L7.41175 19.863C7.40199 19.7752 7.33693 19.7117 7.25643 19.7117C7.17511 19.7117 7.11006 19.7752 7.10193 19.863L6.81325 23.1555L7.10193 26.3277C7.10274 26.4155 7.17511 26.4797 7.25643 26.4797H7.25724ZM17.3259 16.1988C17.125 16.1988 16.964 16.359 16.96 16.5631L16.7965 23.1596L16.96 26.3342C16.964 26.5358 17.125 26.696 17.3259 26.696C17.5267 26.696 17.6869 26.5366 17.6918 26.3317V26.3342L17.8756 23.1596L17.6918 16.5615C17.6869 16.3574 17.5267 16.198 17.3259 16.198V16.1988ZM12.2119 26.6928C12.3509 26.6928 12.4656 26.5797 12.4721 26.435L12.7274 23.1579L12.4721 16.8843C12.4648 16.7396 12.3509 16.6266 12.2119 16.6266C12.072 16.6266 11.9573 16.7396 11.9517 16.8843L11.7256 23.1579L11.9517 26.435C11.9573 26.5781 12.072 26.6911 12.2119 26.6911V26.6928ZM15.062 26.3821V26.3805L15.2816 23.1571L15.062 16.1305C15.0571 15.9557 14.9189 15.8191 14.749 15.8191C14.5782 15.8191 14.4408 15.9557 14.4359 16.1305L14.2415 23.1563L14.4367 26.3813C14.4416 26.5545 14.579 26.6903 14.7498 26.6903C14.9197 26.6903 15.0571 26.5537 15.0628 26.3797L15.062 26.3821ZM31.6506 19.1067C31.1302 19.1067 30.6334 19.2124 30.1804 19.4019C29.8779 15.976 27.0058 13.2893 23.5019 13.2893C22.6448 13.2893 21.8089 13.4585 21.0705 13.7439C20.7835 13.8545 20.707 13.9691 20.7046 14.1911V26.2545C20.7078 26.487 20.8884 26.6806 21.1152 26.7042C21.125 26.7042 31.5831 26.7107 31.6506 26.7107C33.7494 26.7107 35.4514 25.0087 35.4514 22.9099C35.4514 20.8103 33.7502 19.1084 31.6506 19.1084V19.1067ZM19.9272 14.1806C19.6987 14.1806 19.5117 14.3676 19.5084 14.5985L19.3368 23.1604L19.5084 26.2675C19.5117 26.4944 19.6987 26.6814 19.9272 26.6814C20.1549 26.6814 20.3419 26.4944 20.346 26.2642V26.2683L20.5322 23.1604L20.346 14.5977C20.3427 14.3684 20.1549 14.1806 19.9272 14.1806" fill="white"/>
<defs>
<linearGradient id="paint0_linear_106_717" x1="20.5083" y1="39.6608" x2="19.6608" y2="-0.169167" gradientUnits="userSpaceOnUse">
<stop stop-color="#FF433A"/>
<stop offset="1" stop-color="#FF9436"/>
</linearGradient>
</defs>
</svg>
