<svg xmlns="http://www.w3.org/2000/svg" width="24" height="24" aria-hidden="false" aria-labelledby=":r65b:_title" class="text-primary text-current" viewBox="0 0 24 24"><path fill="currentColor" d="M15.945 8.689v6.983A6.337 6.337 0 0 1 9.618 22a6.3 6.3 0 0 1-3.625-1.148A6.325 6.325 0 0 1 9.61 9.345a7 7 0 0 1 .858.058v3.509h-.03a3 3 0 0 0-.384-.095h-.059c-.13-.014-.254-.036-.392-.036a2.9 2.9 0 0 0-2.899 2.899c0 1.598 1.3 2.898 2.9 2.898 1.597 0 2.898-1.3 2.898-2.898V2h3.436c0 .298.03.588.08.872a4.8 4.8 0 0 0 2.1 3.138 4.7 4.7 0 0 0 2.6.777v3.437a8.18 8.18 0 0 1-4.773-1.535"/></svg>