<svg width="48" height="48" viewBox="0 0 48 48" fill="none" xmlns="http://www.w3.org/2000/svg">
  <path d="M0 8C0 3.58172 3.58172 0 8 0H40C44.4183 0 48 3.58172 48 8V40C48 44.4183 44.4183 48 40 48H8C3.58172 48 0 44.4183 0 40V8Z" fill="#9146FF"/>
  <g clip-path="url(#clip0_5_17)">
    <path d="M12.4509 10L10.627 14.8641V34.3179H17.3117V37.9677H20.9613L24.6073 34.3179H30.0778L37.3732 27.0251V10H12.4509ZM14.8809 12.4305H34.9422V25.8066L30.6859 30.0632H24.0001L20.3552 33.7079V30.0632H14.8809V12.4305ZM21.5684 24.5922H24.0001V17.2971H21.5684V24.5922ZM28.2546 24.5922H30.6858V17.2971H28.2546V24.5922Z" fill="white"/>
  </g>
  <defs>
    <clipPath id="clip0_5_17">
      <rect width="26.7463" height="28" fill="white" transform="translate(10.627 10)"/>
    </clipPath>
  </defs>
</svg>
