<svg width="40" height="40" viewBox="0 0 40 40" fill="none" xmlns="http://www.w3.org/2000/svg">
  <path d="M0 8C0 3.58172 3.58172 0 8 0H32C36.4183 0 40 3.58172 40 8V32C40 36.4183 36.4183 40 32 40H8C3.58172 40 0 36.4183 0 32V8Z" fill="white"/>
  <g clip-path="url(#clip0_106_759)">
    <path d="M32.4849 14.205C32.3729 16.6319 30.6739 19.9559 27.3879 24.1759C23.9899 28.5819 21.1139 30.7859 18.7619 30.7859C17.3059 30.7859 16.0729 29.4419 15.0649 26.7529L13.0489 19.3589C12.3009 16.6689 11.4979 15.3249 10.6399 15.3249C10.4529 15.3249 9.79993 15.7169 8.67893 16.5009L7.50293 14.989C8.72493 13.915 9.93793 12.832 11.1439 11.74C12.7869 10.321 14.0189 9.57398 14.8409 9.49998C16.7829 9.31298 17.9779 10.639 18.4259 13.477C18.9109 16.5389 19.2479 18.4439 19.4339 19.1899C19.9939 21.7289 20.6099 22.9989 21.2819 22.9989C21.8049 22.9989 22.5889 22.1769 23.6349 20.5339C24.6809 18.8909 25.2409 17.6399 25.3149 16.7809C25.4639 15.3619 24.9039 14.652 23.6349 14.652C23.0379 14.652 22.4209 14.783 21.7869 15.044C23.0189 11.048 25.3719 9.10698 28.8449 9.21898C31.4209 9.29398 32.6339 10.956 32.4849 14.205Z" fill="#1AB7EA"/>
  </g>
    <path d="M8 0.833333H32V-0.833333H8V0.833333ZM39.1667 8V32H40.8333V8H39.1667ZM32 39.1667H8V40.8333H32V39.1667ZM0.833333 32V8H-0.833333V32H0.833333ZM8 39.1667C4.04196 39.1667 0.833333 35.958 0.833333 32H-0.833333C-0.833333 36.8785 3.12148 40.8333 8 40.8333V39.1667ZM39.1667 32C39.1667 35.958 35.958 39.1667 32 39.1667V40.8333C36.8785 40.8333 40.8333 36.8785 40.8333 32H39.1667ZM32 0.833333C35.958 0.833333 39.1667 4.04196 39.1667 8H40.8333C40.8333 3.12148 36.8785 -0.833333 32 -0.833333V0.833333ZM8 -0.833333C3.12148 -0.833333 -0.833333 3.12148 -0.833333 8H0.833333C0.833333 4.04196 4.04196 0.833333 8 0.833333V-0.833333Z" fill="#EBEEF1"/>
  <defs>
  <clipPath id="clip0_106_759">
    <rect width="25" height="21.57" fill="white" transform="translate(7.5 9.21499)"/>
  </clipPath>
  </defs>
</svg>
